# xmcd
#
# Track frame offsets:
#	150
#	16601
#	27762
#	44127
#	60714
#	75285
#	99062
#	117254
#	136787
#	155504
#	169431
#	185470
#	199852
#	221138
#
# Disc length: 3127 seconds
#
# Revision: 1
# Processed by: cddbd v1.5.2PL0 Copyright (c) Steve Scherf et al.
# Submitted via: audiograbber 1.83.01
#
DISCID=b40c350e
DTITLE=The Rustlers - Sad Dark Lies
DYEAR=2006
DGENRE=Crossover
TTITLE0=Sad Dark Lies
TTITLE1=Sally
TTITLE2=All Because Of You
TTITLE3=Since You've been Gone
TTITLE4=Sweet Eloise
TTITLE5=In My Arms
TTITLE6=My First Broken Heart
TTITLE7=I Never Give My Baby Roses
TTITLE8=Sixteen Dozen Roses
TTITLE9=Knockin' On Your Door
TTITLE10=Mama
TTITLE11=Mountain Top
TTITLE12=Two Broken Hearts
TTITLE13=Hey Hank
EXTD=
EXTT0=
EXTT1=
EXTT2=
EXTT3=
EXTT4=
EXTT5=
EXTT6=
EXTT7=
EXTT8=
EXTT9=
EXTT10=
EXTT11=
EXTT12=
EXTT13=
PLAYORDER=
